<?xml version="1.0" encoding="utf-8"?>
<!-- Generator: Adobe Illustrator 23.0.0, SVG Export Plug-In . SVG Version: 6.00 Build 0)  -->
<svg version="1.1" id="Capa_1" xmlns="http://www.w3.org/2000/svg" xmlns:xlink="http://www.w3.org/1999/xlink" x="0px" y="0px"
	 viewBox="0 0 1920 1080" style="enable-background:new 0 0 1920 1080;" xml:space="preserve">
<style type="text/css">
	.st0{fill:#0F84C7;}
	.st1{fill:#FEE0B0;}
	.st2{fill:url(#SVGID_1_);}
	.st3{fill:#0699B9;}
	.st4{opacity:0.42;fill:#A4C3D7;}
	.st5{opacity:0.47;}
	.st6{fill:#A4C3D7;}
	.st7{fill:#9DD4D5;}
	.st8{fill:url(#SVGID_2_);}
	.st9{fill:url(#SVGID_3_);}
	.st10{fill:url(#SVGID_4_);}
	.st11{fill:#FBD890;}
	.st12{fill:#F6A75A;}
	.st13{fill:url(#SVGID_5_);}
	.st14{opacity:0.11;fill:#210F0B;}
	.st15{fill:#F08806;}
	.st16{opacity:0.21;fill:#FCF4EA;}
	.st17{fill:#D65340;}
	.st18{fill:#8A3A37;}
	.st19{fill:url(#SVGID_6_);}
	.st20{fill:#283E6F;}
	.st21{fill:#DBDDE5;}
	.st22{fill:#56231C;}
	.st23{fill:#FFFFFF;}
	.st24{fill:url(#SVGID_7_);}
	.st25{opacity:0.21;fill:#210F0B;}
	.st26{fill:url(#SVGID_8_);}
	.st27{fill:url(#SVGID_9_);}
	.st28{fill:#00A1C3;}
	.st29{opacity:0.47;fill:#A4C3D7;}
	.st30{opacity:0.35;fill:url(#SVGID_10_);}
	.st31{fill:#259DBF;}
	.st32{fill:#210F0B;}
	.st33{opacity:0.39;fill:#7D4939;}
</style>
<g>
	<path class="st0" d="M822.52,938.86c167.72,0,240.94-33.63,281.4-83.38c-18.73-27.64,33.85-227.67,10.41-207.48
		c-37.11,188.4-128.18,162.15-275.98,172.72c-55.83,3.99-129.23-58.12-192.68-36.6C448.01,851.15,639.08,938.86,822.52,938.86z"/>
	<ellipse class="st1" cx="834.68" cy="851.15" rx="163.38" ry="87.97"/>
	
		<linearGradient id="SVGID_1_" gradientUnits="userSpaceOnUse" x1="624.1953" y1="709.2339" x2="788.7572" y2="709.2339" gradientTransform="matrix(-0.3816 -0.9243 0.9243 -0.3816 464.176 1810.8639)">
		<stop  offset="0" style="stop-color:#FEE0B0;stop-opacity:0.6"/>
		<stop  offset="0.4949" style="stop-color:#E9C9A1;stop-opacity:0.798"/>
		<stop  offset="1" style="stop-color:#CFAE8E"/>
	</linearGradient>
	<path class="st2" d="M840.79,759.42c110.58-8.68,209.38,79.07,126.57,143.06c3.35,1.08-106.88-111.44-262.93,1.78
		C637.92,857.4,667.92,773,840.79,759.42z"/>
	<path class="st0" d="M1057.24,617.62c-16.8-51.15-49.04-157.08-85.23-182.68c-33.22-23.5-133.84-91.23-222.88-37.24
		c-14.7,8.91-103.65,66.78-143.78,244.57c-42.72,189.27,128.19,213.22,231.93,183.18C936.05,854.19,1125.49,825.44,1057.24,617.62z"
		/>
	<path class="st3" d="M634.42,543.28c-28.91,4.28-60.11,7.26-101.76-43.37c-5.4-6.56-0.21-17.44,7.33-15.36
		c8.82,2.43,17.58,3.87,21.86,1.77c0,0-29.12-18.13-45.84-59.26c-5.26-12.94,5.92-26.6,17-20.71c27.5,14.62,71.1,32.67,106.12,23.59
		c55.61-14.42,97.86-32.23,97.86-32.23S742.24,527.33,634.42,543.28z"/>
	<path class="st3" d="M1040.45,543.28c28.91,4.28,60.11,7.26,101.76-43.37c5.4-6.56,0.21-17.44-7.33-15.36
		c-8.82,2.43-17.58,3.87-21.86,1.77c0,0,29.12-18.13,45.84-59.26c5.26-12.94-5.92-26.6-17-20.71
		c-27.5,14.62-71.1,32.67-106.12,23.59c-55.61-14.42-97.86-32.23-97.86-32.23S932.63,527.33,1040.45,543.28z"/>
	<path class="st4" d="M1030.46,508.81c28.91,4.28,86.84-20.39,82.57-22.5c0,0,29.12-18.13,45.84-59.26
		c5.26-12.94-5.92-26.6-17-20.71c-27.5,14.62-71.1,32.67-106.12,23.59c-55.61-14.42-97.86-32.23-97.86-32.23
		S922.63,492.87,1030.46,508.81z"/>
	<path class="st4" d="M644.06,508.81c-28.91,4.28-86.84-20.39-82.57-22.5c0,0-29.12-18.13-45.84-59.26
		c-5.26-12.94,5.92-26.6,17-20.71c27.5,14.62,71.1,32.67,106.12,23.59c55.61-14.42,97.86-32.23,97.86-32.23
		S751.89,492.87,644.06,508.81z"/>
	<g class="st5">
		<path class="st6" d="M717.85,808.36c0,0-0.23,0-0.68-0.02C717.61,808.37,717.85,808.36,717.85,808.36z"/>
		<path class="st6" d="M771.85,808.36c-5.56-0.29-109.39-41.14-115.5-123.02c-6.45-86.31,27.52-94.04,37.12-154.15
			c-51,62.11-83.52,163.82-33.49,245.35C694.1,832.15,771.85,808.36,771.85,808.36z"/>
	</g>
	<g class="st5">
		<path class="st6" d="M948.25,810.4c0,0,0.23,0,0.68-0.02C948.49,810.41,948.25,810.4,948.25,810.4z"/>
		<path class="st6" d="M894.25,810.4c5.56-0.29,109.39-41.14,115.5-123.02c6.45-86.31-27.52-94.04-37.12-154.15
			c51,62.11,83.52,163.82,33.49,245.35C972.01,834.19,894.25,810.4,894.25,810.4z"/>
	</g>
	<path class="st1" d="M1016.49,572.53c-27.4-123.04-105-121.16-165.78,37.79c-26.48-8.32-32.65,0.49-32.65,0.49
		c-80.77-181.06-139.56-141.88-163.95-42.25c-61.39,250.82,131.4,262.98,161.28,249.58c17.68,33.98,61.73,37.34,61.73,37.34
		c-25.87-9.77-25.53-37.16-25.53-37.16C870.67,823.66,1071.66,820.23,1016.49,572.53z"/>
	<path class="st7" d="M717.86,335.01v73.38c0,0,86.89,96.45,240.97,0v-73.38H717.86z"/>
	<linearGradient id="SVGID_2_" gradientUnits="userSpaceOnUse" x1="838.3472" y1="652.2108" x2="1029.475" y2="652.2108">
		<stop  offset="0" style="stop-color:#FEE0B0;stop-opacity:0.6"/>
		<stop  offset="0.4949" style="stop-color:#E9C9A1;stop-opacity:0.798"/>
		<stop  offset="1" style="stop-color:#CFAE8E"/>
	</linearGradient>
	<path class="st8" d="M954.11,725.29c-45.38,94.06-115.77,81.75-115.77,81.75s86.05,38.55,149.44-26.1
		c76.18-77.69,36.43-283.34-27.28-294.9c-7.97-1.33-47.08,23.38-55.42,23.28C905.09,509.31,1015.1,598.9,954.11,725.29z"/>
	
		<linearGradient id="SVGID_3_" gradientUnits="userSpaceOnUse" x1="833.3098" y1="852.9733" x2="940.9456" y2="852.9733" gradientTransform="matrix(-0.7471 -0.7655 0.7323 -0.7147 957.964 1870.4063)">
		<stop  offset="0" style="stop-color:#FEE0B0;stop-opacity:0.6"/>
		<stop  offset="0.4949" style="stop-color:#E9C9A1;stop-opacity:0.798"/>
		<stop  offset="1" style="stop-color:#CFAE8E"/>
	</linearGradient>
	<path class="st9" d="M915.89,561.73c35.78-42.65,98.94-6.67,97.94-8.81c-5.17-9.94-13.84-49.07-61.36-60.07
		c-46.86-10.84-112.24,112.57-100.03,133.47c2.66,3.92,33.88,61.75,37.14,65.37C889.58,691.69,865.17,622.19,915.89,561.73z"/>
	
		<linearGradient id="SVGID_4_" gradientUnits="userSpaceOnUse" x1="910.4149" y1="654.1841" x2="1083.973" y2="654.1841" gradientTransform="matrix(-1 0 0 1 1725.8041 0)">
		<stop  offset="0" style="stop-color:#FEE0B0;stop-opacity:0.6"/>
		<stop  offset="0.4949" style="stop-color:#E9C9A1;stop-opacity:0.798"/>
		<stop  offset="1" style="stop-color:#CFAE8E"/>
	</linearGradient>
	<path class="st10" d="M815.39,810.3c0,0-53.2,28.1-123.16-19.08c-69.6-46.94-59.69-199.28-15.13-286.04
		c16.39-21.29,68.63-24.82,87.85,17.38C600.48,749.78,815.39,810.3,815.39,810.3z"/>
	<g>
		<polygon class="st11" points="1036.56,522.76 1024.33,525.79 974.16,298.09 981.69,296.22 		"/>
		<path class="st12" d="M1030.47,517.01c-18.18,5.14-4.41,68.61-4.41,68.61l20.21-5.71l20.21-5.71
			C1066.47,574.18,1048.65,511.86,1030.47,517.01z"/>
	</g>
	
		<linearGradient id="SVGID_5_" gradientUnits="userSpaceOnUse" x1="815.3451" y1="895.5663" x2="925.672" y2="895.5663" gradientTransform="matrix(0.6984 -0.7157 -0.6952 -0.6785 761.0812 1809.6907)">
		<stop  offset="0" style="stop-color:#FEE0B0;stop-opacity:0.6"/>
		<stop  offset="0.4949" style="stop-color:#E9C9A1;stop-opacity:0.798"/>
		<stop  offset="1" style="stop-color:#CFAE8E"/>
	</linearGradient>
	<path class="st13" d="M743.73,545.43c-34.01-40.45-80.81-5.63-80.81-5.63s15.32-49.93,44.58-53.55
		c44.8-5.54,122.85,112.88,107.88,137.72c-2.48,3.67-33.06,60.84-36.1,64.22C779.29,688.19,791.94,602.77,743.73,545.43z"/>
	
		<ellipse transform="matrix(0.9994 -0.0342 0.0342 0.9994 -23.6225 29.2606)" class="st14" cx="843.25" cy="704.93" rx="59.24" ry="87.17"/>
	<path class="st15" d="M890.98,703.6c0,30.7-24.09,83.11-53.81,83.11s-53.81-52.4-53.81-83.11c0-30.7,24.09-55.59,53.81-55.59
		S890.98,672.89,890.98,703.6z"/>
	<path class="st16" d="M837.17,786.7c-22.12,0-45.59-35.26-50.83-61.75c-5.95-30.05,21.23,0,50.95,0S866.89,786.7,837.17,786.7z"/>
	<path class="st17" d="M884.86,695.94c0,24.84-21.3,67.24-47.57,67.24s-47.57-42.4-47.57-67.24c0-24.84,21.3-44.98,47.57-44.98
		S884.86,671.09,884.86,695.94z"/>
	<path class="st18" d="M884.86,695.94c-2.82,38.65-45.5,87.35-48.7,59.68c-6.85-59.33-46.44-34.84-46.44-59.68
		c0-24.84,21.3-44.98,47.57-44.98S886.66,671.17,884.86,695.94z"/>
	<path class="st15" d="M837.29,723.52c24.59-36.27,51.54-12.74,66.65-33.82c-9.27,5.39-13.29-29.08-26.82-49.94
		c-12.66-19.53-23.9-36.88-44.79-36.63c-11.84,0.14-32.13,22.89-44.35,46.39c-12.97,24.96-17.38,47.9-25.79,41.16
		C775.61,710.78,817.08,687.74,837.29,723.52z"/>
	<path class="st16" d="M837.29,723.52c-27.91-63.55,15.93-120.63-4.96-120.38c-11.84,0.14-32.13,22.89-44.35,46.39
		c-12.97,24.96-17.38,47.9-25.79,41.16C775.61,710.78,817.08,687.74,837.29,723.52z"/>
	<linearGradient id="SVGID_6_" gradientUnits="userSpaceOnUse" x1="746.8488" y1="390.9624" x2="961.2593" y2="390.9624">
		<stop  offset="0" style="stop-color:#9DD4D5"/>
		<stop  offset="0.3345" style="stop-color:#86C4CA"/>
		<stop  offset="1" style="stop-color:#42A0AF"/>
	</linearGradient>
	<path class="st19" d="M961.26,408.1v-73.09H770.89l-24.04,13.16l114.13,98.75C890.25,441.82,923.74,433.07,961.26,408.1z"/>
	<g>
		<path class="st20" d="M1005.54,335.25H685.24c0,0-14.78,0-14.78-21.39s14.78-21.39,14.78-21.39h320.29c0,0,14.78,3.07,14.78,21.39
			C1020.31,335.25,1005.54,335.25,1005.54,335.25z"/>
		<path class="st20" d="M1005.54,335.25H685.24c0,0-14.78,0-14.78-21.39s14.78-21.39,14.78-21.39h320.29c0,0,14.78,3.07,14.78,21.39
			C1020.31,335.25,1005.54,335.25,1005.54,335.25z"/>
		<path class="st20" d="M1005.54,335.25H685.24c0,0-14.78,0-14.78-21.39s14.78-21.39,14.78-21.39h320.29c0,0,14.78,3.07,14.78,21.39
			C1020.31,335.25,1005.54,335.25,1005.54,335.25z"/>
		<path class="st20" d="M1005.54,335.25H685.24c0,0-14.78,0-14.78-21.39s14.78-21.39,14.78-21.39h320.29c0,0,14.78,3.07,14.78,21.39
			C1020.31,335.25,1005.54,335.25,1005.54,335.25z"/>
		<path class="st20" d="M1005.54,335.25H685.24c0,0-14.78,0-14.78-21.39s14.78-21.39,14.78-21.39h320.29c0,0,14.78,3.07,14.78,21.39
			C1020.31,335.25,1005.54,335.25,1005.54,335.25z"/>
	</g>
	<g>
		<path class="st21" d="M400.62,287.09l-0.26-0.3c-25.67-29.46-25.83-71.78,4.08-97.85c14.61-12.73,28.1-17.2,41.71-17.86
			c3.77-0.16,8.56,1.4,12.04,5.39c5.42,6.22,4.94,15.23-0.9,20.32c-2.92,2.55-5.9,3.06-8.34,3.36c-10.11,0.48-18.69,3.27-26.34,9.94
			c-16.42,14.31-15.6,39.13-0.12,56.89l0.26,0.3c15.48,17.77,39.93,22.5,56.62,7.96c9.04-7.88,12.44-16.06,14.05-26.57
			c0.38-2.94,1.7-5.91,4.2-8.1c5.43-4.73,14.15-3.99,19.18,1.78c3.1,3.55,3.88,7.82,3.48,11.3c-1.67,15.78-7.71,29.64-23.29,43.22
			C468.35,321.84,426.55,316.85,400.62,287.09z"/>
		<path class="st21" d="M479.46,144.15c-4.61-7.31-1.66-15.44,5.83-20.17c7.49-4.73,16.09-3.88,20.7,3.43l0.21,0.33
			c4.61,7.31,1.76,15.61-5.73,20.33c-7.49,4.73-16.2,3.72-20.8-3.59L479.46,144.15z M501.59,176.16c-4.4-6.98-2.65-15.98,3.9-20.11
			c6.55-4.14,15.42-1.84,19.82,5.14l41.45,65.8c4.39,6.98,2.65,15.98-3.91,20.11c-6.55,4.14-15.42,1.84-19.82-5.14L501.59,176.16z"
			/>
		<path class="st21" d="M584.76,198.1l-21.82-44.86l-0.83,0.4c-5.97,2.91-13.27,0.13-16.36-6.22c-3.09-6.36-0.77-13.83,5.2-16.74
			l0.83-0.4l-5.75-11.83c-3.61-7.42-0.89-16.17,6.08-19.57c6.97-3.4,15.53-0.14,19.13,7.28l5.75,11.83l11.11-5.42
			c5.97-2.91,13.27-0.13,16.36,6.22c3.09,6.36,0.77,13.83-5.2,16.74l-11.11,5.42l19.67,40.44c3.01,6.18,6.95,7.97,12.59,5.22
			c0.83-0.4,2.4-1.39,2.9-1.63c5.64-2.75,12.85-0.15,15.86,6.03c2.32,4.77,1.22,10.11-1.57,13.22c-3.7,4.21-7.67,7.02-13.14,9.68
			C609.03,221.44,595.41,220,584.76,198.1z"/>
		<path class="st21" d="M671.53,222.39c-4.34-0.32-9.96-2.29-12.07-9.25c-2.12-6.95,1.57-13.22,7.04-14.89
			c2.12-0.65,3.47-0.65,4.64-0.6c2.52,0.05,4.05-0.01,5.99-0.6c4.76-1.46,6.77-3.1,7.7-8.93l0.19-2.52l-56.55-69.78
			c-1.28-1.66-2.84-4.27-3.42-6.14c-2.46-8.08,1.64-15.5,9.05-17.76c6.71-2.05,11.79,0.71,16.14,6.77l38.32,52.36l1.96-64.48
			c0.29-6.66,2.68-12.73,9.56-14.84c6.88-2.11,14.42,1.75,16.71,9.27c0.68,2.25,0.95,5.67,0.82,7.14l-7.28,94.46
			c-1.7,22.91-7.29,33.04-23.34,37.95C680.97,222.37,676.45,222.73,671.53,222.39z"/>
		<path class="st21" d="M810.4,36.14c0.01-8.45,6.29-15.13,14.22-15.13c7.93,0,14.19,6.68,14.18,15.13l-0.07,46.18l52.45-55.41
			c3.51-3.73,7.02-5.89,12-5.89c7.93,0,13.08,6.48,13.07,13.95c-0.01,4.71-2.04,8.25-5.18,11.4l-36.38,36.15l39.57,53.06
			c2.21,2.95,3.86,6.09,3.86,10.61c-0.01,8.45-6.1,14.74-14.4,14.74c-5.53,0-8.85-2.95-11.98-7.27l-36.81-51.48l-16.25,16.11
			l-0.04,27.51c-0.01,8.45-6.29,15.13-14.22,15.13c-7.93,0-14.19-6.68-14.18-15.13L810.4,36.14z"/>
		<path class="st21" d="M950.05,72.29c1.59-8.1,9.03-13.46,16.63-11.98c7.6,1.48,12.47,9.24,10.87,17.34l-0.23,1.16
			c8.04-7.45,17.73-13.77,31.67-11.06c20.81,4.05,30.06,21.07,25.4,44.8l-10.49,53.43c-1.59,8.1-9.03,13.46-16.63,11.98
			c-7.6-1.48-12.47-9.24-10.88-17.34l8.67-44.17c2.73-13.89-2.03-22.22-12.52-24.26c-10.5-2.04-18.59,3.79-21.32,17.68l-8.67,44.17
			c-1.59,8.1-9.03,13.46-16.63,11.98c-7.6-1.48-12.47-9.24-10.88-17.34L950.05,72.29z"/>
		<path class="st21" d="M1054.03,134.31l0.15-0.36c11.5-28.01,41.98-42.09,70.47-30.43c28.31,11.59,40.11,42.55,28.61,70.56
			l-0.15,0.36c-11.5,28.01-41.98,42.09-70.47,30.43C1054.32,193.28,1042.53,162.32,1054.03,134.31z M1127.37,164.33l0.15-0.36
			c5.9-14.37,1.33-30.9-13-36.76c-14.84-6.07-28.71,2.48-34.61,16.85l-0.15,0.36c-5.9,14.37-1.33,30.9,13,36.76
			C1107.6,187.26,1121.48,178.7,1127.37,164.33z"/>
		<path class="st21" d="M1164.83,228.28l23.03-74.67c0.57-1.77,1.66-4.6,3.13-6.69c3.96-5.63,12.03-8.13,18.81-3.35
			c5.73,4.03,6.78,10.54,4.48,17.33l-18.43,52.43l43.34-34.67c5.73-4.62,12.78-5.67,18.66-1.54l1.36,0.95
			c5.88,4.14,7.27,11.12,4.85,18.08l-17.97,52.75l43.68-35.15c5.13-4.08,11.54-5.83,17.57-1.59c6.33,4.45,7.08,12.67,2.78,18.78
			c-1.13,1.61-3.17,3.54-4.26,4.45l-63.7,47.27c-7.73,5.86-14.78,5.95-20.36,2.03l-0.75-0.53c-5.58-3.92-7.88-10.59-5.01-19.15
			l17.75-52.43l-43.53,34.3c-7.09,5.59-14.14,5.68-19.72,1.76l-0.75-0.53C1164.22,244.2,1161.93,237.53,1164.83,228.28z"/>
	</g>
	<g>
		<path class="st22" d="M767.21,623.8c12.47-39.33-28.99-124.1-81.17-89.96c-21.3,13.94-24.49,87.25,15.33,111.49
			C728.88,662.08,757.11,655.67,767.21,623.8z"/>
		<path class="st23" d="M777.93,632.82c12.47-39.33-28.99-124.1-81.17-89.96c-21.3,13.94-24.49,87.25,15.33,111.49
			C739.6,671.1,767.82,664.69,777.93,632.82z"/>
		<linearGradient id="SVGID_7_" gradientUnits="userSpaceOnUse" x1="697.6623" y1="609.0266" x2="778.3564" y2="609.0266">
			<stop  offset="0" style="stop-color:#43276A"/>
			<stop  offset="0.4103" style="stop-color:#3C2560"/>
			<stop  offset="1" style="stop-color:#31204F"/>
		</linearGradient>
		<path class="st24" d="M776.53,636.52c10.17-32.1-23.66-101.27-66.24-73.41c-17.38,11.37-19.98,71.2,12.51,90.98
			C745.26,667.76,768.29,662.52,776.53,636.52z"/>
		<path class="st25" d="M697.09,538.91c15.36-13.29,44.42-4.87,61.78,17.73s30.14,61.98,14.78,75.27s-55.57-5.41-72.93-28.01
			C683.36,581.29,681.73,552.19,697.09,538.91z"/>
		<ellipse class="st23" cx="730.92" cy="590.11" rx="16.57" ry="17.58"/>
	</g>
	<g>
		<path class="st22" d="M901.56,623.8c-12.47-39.33,28.99-124.1,81.17-89.96c21.3,13.94,24.49,87.25-15.33,111.49
			C939.89,662.08,911.66,655.67,901.56,623.8z"/>
		<path class="st23" d="M890.84,632.82c-12.47-39.33,28.99-124.1,81.17-89.96c21.3,13.94,24.49,87.25-15.33,111.49
			C929.17,671.1,900.95,664.69,890.84,632.82z"/>
		
			<linearGradient id="SVGID_8_" gradientUnits="userSpaceOnUse" x1="1238.9506" y1="609.0266" x2="1319.6447" y2="609.0266" gradientTransform="matrix(-1 0 0 1 2210.0583 0)">
			<stop  offset="0" style="stop-color:#43276A"/>
			<stop  offset="0.4103" style="stop-color:#3C2560"/>
			<stop  offset="1" style="stop-color:#31204F"/>
		</linearGradient>
		<path class="st26" d="M892.24,636.52c-10.17-32.1,23.66-101.27,66.24-73.41c17.38,11.37,19.98,71.2-12.51,90.98
			C923.51,667.76,900.48,662.52,892.24,636.52z"/>
		<path class="st25" d="M971.68,538.91c-15.36-13.29-44.42-4.87-61.78,17.73c-17.36,22.6-30.14,61.98-14.78,75.27
			c15.36,13.29,55.57-5.41,72.93-28.01S987.04,552.19,971.68,538.91z"/>
		<ellipse class="st23" cx="937.85" cy="590.11" rx="16.57" ry="17.58"/>
	</g>
	<g>
		
			<linearGradient id="SVGID_9_" gradientUnits="userSpaceOnUse" x1="1078.3431" y1="529.8456" x2="1564.1453" y2="529.8456" gradientTransform="matrix(0.9834 0.1814 -0.1814 0.9834 150.0598 -219.5381)">
			<stop  offset="0" style="stop-color:#046888"/>
			<stop  offset="1" style="stop-color:#035975"/>
		</linearGradient>
		<path class="st27" d="M1182.1,559.9c37.18-13.36,77.28-64.52,110.4-154.86c33.11-90.34,50.27-189.18,50.27-189.18
			s133.22,18.08,77.79,190.17c-28.59,88.78-120.25,185.47-120.25,185.47s162.77-36.31,280.62-216.52c0,0,84.25,103.33-23.89,199.91
			c-35.5,31.71-104.17,75.78-175.65,75.69c0,0,45.87,9.96,51.46,38.89c9.67,50.12-33.1,61.25-33.1,61.25s4.96,73.69-69.52,67.83
			s-97.74-23.88-97.74-23.88s-74.33,5.75-107.07,18.44c-46.8,18.14-64.78-24.3-64.78-24.3C1090.1,728.16,1050.42,607.2,1182.1,559.9
			z"/>
		<path class="st28" d="M1391.93,660.32c-61.81,20.74-37.38,70.1-54.14,91.86c-23.62-4.54-71.27-7.11-100.29-8.01
			C1233.37,720.04,1244.9,590.25,1391.93,660.32z"/>
		<path class="st0" d="M1131.81,584.89c29.85-23.51,68.32-30.12,157.94,14.99c38.81,19.53,129.98,39.02,129.98,39.02
			s-16.53,38.93-59.06,55.79c-21.27,8.43-119.4-9.47-119.4-9.47s-20.04,222.02-248.18,204.66c-18.78-1.43,27.46-42.33,48.7-114.41
			C1065.48,695.08,1063.26,638.88,1131.81,584.89z"/>
		<path class="st28" d="M1337.23,750.39c-41.75,14.58-25.24,49.31-36.56,64.62c-15.96-3.2-48.15-5.01-67.75-5.65
			C1230.14,792.38,1237.91,701.07,1337.23,750.39z"/>
		<path class="st29" d="M1434.09,698.89c-56.57,44.35-115.48,15.4-130.93,11.88c-52.97-12.05-64.39-4.09-65.98,35.16
			C1288.01,730.75,1436.22,796.86,1434.09,698.89z"/>
		<path class="st29" d="M1400.3,750.26c-49.81,47.06-96.89,22.84-109.5,20.47c-43.23-8.15-53.22,0.39-57.04,38.74
			c12.43-0.65,39.39,0.74,66.92,5.55C1351.92,823.97,1397.19,821.46,1400.3,750.26z"/>
		<path class="st28" d="M1384.87,483.32c14.79-151.97-36.3-159-65.35-164.8c12.13-48.92,14.26-58.35,24.28-107.59
			C1343.81,210.93,1516.61,248.9,1384.87,483.32z"/>
		<path class="st28" d="M1479.96,625.97c92.98-105.52,60.13-151.07,41.54-174.51c26.69-29.37,46.15-57.3,59.43-76.48
			C1580.93,374.98,1700.29,518.5,1479.96,625.97z"/>
		<path class="st29" d="M1220.32,533.43c36.21-40.67,79.06-102.14,123.49-322.5C1474.27,268.19,1339.98,464.22,1220.32,533.43z"/>
		<path class="st29" d="M1299.83,591.41c51.59-14.7,167.62-53.31,281.1-216.43C1662.2,494.86,1436.85,598.13,1299.83,591.41z"/>
		<path class="st29" d="M1083.22,662.42c9.79-54.77,57.18-94.6,94.05-95.75c66.87-2.09,110.1,49.38,242.46,72.23
			c-44.82,81.92-163.01-23.11-245.37-27.21C1093.01,607.65,1074.25,712.61,1083.22,662.42z"/>
		
			<linearGradient id="SVGID_10_" gradientUnits="userSpaceOnUse" x1="1160.807" y1="744" x2="1237.275" y2="744" gradientTransform="matrix(0.9834 0.1814 -0.1814 0.9834 150.0598 -219.5381)">
			<stop  offset="0" style="stop-color:#046888"/>
			<stop  offset="1" style="stop-color:#035975"/>
		</linearGradient>
		<path class="st30" d="M1192.46,668.14c16.47,6.92,27.32,11.93,48.81,17.08c-10.34,72.07-95.48,96.51-95.48,96.51
			S1238.49,733.8,1192.46,668.14z"/>
	</g>
	<g>
		<path class="st31" d="M381.84,287.09l-0.26-0.3c-25.67-29.46-25.83-71.78,4.08-97.85c14.61-12.73,28.1-17.2,41.71-17.86
			c3.77-0.16,8.56,1.4,12.04,5.39c5.42,6.22,4.94,15.23-0.9,20.32c-2.92,2.55-5.9,3.06-8.34,3.36c-10.11,0.48-18.69,3.27-26.34,9.94
			c-16.42,14.31-15.6,39.13-0.12,56.89l0.26,0.3c15.48,17.77,39.93,22.5,56.62,7.96c9.04-7.88,12.44-16.06,14.05-26.57
			c0.38-2.94,1.7-5.91,4.2-8.1c5.43-4.73,14.15-3.99,19.18,1.78c3.1,3.55,3.88,7.82,3.48,11.3c-1.67,15.78-7.71,29.64-23.29,43.22
			C449.57,321.84,407.77,316.85,381.84,287.09z"/>
		<path class="st31" d="M460.67,144.15c-4.61-7.31-1.66-15.44,5.83-20.17c7.49-4.73,16.09-3.88,20.7,3.43l0.21,0.33
			c4.61,7.31,1.76,15.61-5.73,20.33c-7.49,4.73-16.2,3.72-20.8-3.59L460.67,144.15z M482.8,176.16c-4.4-6.98-2.65-15.98,3.9-20.11
			c6.55-4.14,15.42-1.84,19.82,5.14l41.45,65.8c4.39,6.98,2.65,15.98-3.91,20.11c-6.55,4.14-15.42,1.84-19.82-5.14L482.8,176.16z"/>
		<path class="st31" d="M565.97,198.1l-21.82-44.86l-0.83,0.4c-5.97,2.91-13.27,0.13-16.36-6.22c-3.09-6.36-0.77-13.83,5.2-16.74
			l0.83-0.4l-5.75-11.83c-3.61-7.42-0.89-16.17,6.08-19.57c6.97-3.4,15.53-0.14,19.13,7.28l5.75,11.83l11.11-5.42
			c5.97-2.91,13.27-0.13,16.36,6.22c3.09,6.36,0.77,13.83-5.2,16.74l-11.11,5.42l19.67,40.44c3.01,6.18,6.95,7.97,12.59,5.22
			c0.83-0.4,2.4-1.39,2.9-1.63c5.64-2.75,12.85-0.15,15.86,6.03c2.32,4.77,1.22,10.11-1.57,13.22c-3.7,4.21-7.67,7.02-13.14,9.68
			C590.25,221.44,576.62,220,565.97,198.1z"/>
		<path class="st31" d="M652.75,222.39c-4.34-0.32-9.96-2.29-12.07-9.25c-2.12-6.95,1.57-13.22,7.04-14.89
			c2.12-0.65,3.47-0.65,4.64-0.6c2.52,0.05,4.05-0.01,5.99-0.6c4.76-1.46,6.77-3.1,7.7-8.93l0.19-2.52l-56.55-69.78
			c-1.28-1.66-2.84-4.27-3.42-6.14c-2.46-8.08,1.64-15.5,9.05-17.76c6.71-2.05,11.79,0.71,16.14,6.77l38.32,52.36l1.96-64.48
			c0.29-6.66,2.68-12.73,9.56-14.84c6.88-2.11,14.42,1.75,16.71,9.27c0.68,2.25,0.95,5.67,0.82,7.14l-7.28,94.46
			c-1.7,22.91-7.29,33.04-23.34,37.95C662.19,222.37,657.67,222.73,652.75,222.39z"/>
		<path class="st31" d="M791.61,36.14c0.01-8.45,6.29-15.13,14.22-15.13c7.93,0,14.19,6.68,14.18,15.13l-0.07,46.18l52.45-55.41
			c3.51-3.73,7.02-5.89,12-5.89c7.93,0,13.08,6.48,13.07,13.95c-0.01,4.71-2.04,8.25-5.18,11.4L855.9,82.52l39.57,53.06
			c2.21,2.95,3.86,6.09,3.86,10.61c-0.01,8.45-6.1,14.74-14.4,14.74c-5.53,0-8.85-2.95-11.98-7.27l-36.81-51.48l-16.25,16.11
			l-0.04,27.51c-0.01,8.45-6.29,15.13-14.22,15.13c-7.93,0-14.19-6.68-14.18-15.13L791.61,36.14z"/>
		<path class="st31" d="M931.26,72.29c1.59-8.1,9.03-13.46,16.63-11.98c7.6,1.48,12.47,9.24,10.87,17.34l-0.23,1.16
			c8.04-7.45,17.73-13.77,31.67-11.06c20.81,4.05,30.06,21.07,25.4,44.8l-10.49,53.43c-1.59,8.1-9.03,13.46-16.63,11.98
			c-7.6-1.48-12.47-9.24-10.88-17.34l8.67-44.17c2.73-13.89-2.03-22.22-12.52-24.26c-10.5-2.04-18.59,3.79-21.32,17.68l-8.67,44.17
			c-1.59,8.1-9.03,13.46-16.63,11.98c-7.6-1.48-12.47-9.24-10.88-17.34L931.26,72.29z"/>
		<path class="st31" d="M1035.24,134.31l0.15-0.36c11.5-28.01,41.98-42.09,70.47-30.43c28.31,11.59,40.11,42.55,28.61,70.56
			l-0.15,0.36c-11.5,28.01-41.98,42.09-70.47,30.43C1035.54,193.28,1023.74,162.32,1035.24,134.31z M1108.59,164.33l0.15-0.36
			c5.9-14.37,1.33-30.9-13-36.76c-14.84-6.07-28.71,2.48-34.61,16.85l-0.15,0.36c-5.9,14.37-1.33,30.9,13,36.76
			C1088.82,187.26,1102.69,178.7,1108.59,164.33z"/>
		<path class="st31" d="M1146.05,228.28l23.03-74.67c0.57-1.77,1.66-4.6,3.13-6.69c3.96-5.63,12.03-8.13,18.81-3.35
			c5.73,4.03,6.78,10.54,4.48,17.33l-18.43,52.43l43.34-34.67c5.73-4.62,12.78-5.67,18.66-1.54l1.36,0.95
			c5.88,4.14,7.27,11.12,4.85,18.08l-17.97,52.75l43.68-35.15c5.13-4.08,11.54-5.83,17.57-1.59c6.33,4.45,7.08,12.67,2.78,18.78
			c-1.13,1.61-3.17,3.54-4.26,4.45l-63.7,47.27c-7.73,5.86-14.78,5.95-20.36,2.03l-0.75-0.53c-5.58-3.92-7.88-10.59-5.01-19.15
			l17.75-52.43l-43.53,34.3c-7.09,5.59-14.14,5.68-19.72,1.76l-0.75-0.53C1145.44,244.2,1143.14,237.53,1146.05,228.28z"/>
	</g>
	<g>
		<g>
			<path class="st28" d="M838.33,870.43c0-10.88,8.3-19.68,18.54-19.68c10.25,0,18.55,8.8,18.55,19.68v1.81
				c9.03-12.95,21.47-22.53,40.75-22.53c30.5,0,59.54,25.38,59.54,71.73v0.52c0,46.35-28.55,71.73-59.54,71.73
				c-19.76,0-31.97-9.58-40.75-20.71v41.43c0,10.88-8.3,19.68-18.55,19.68c-10.25,0-18.54-8.8-18.54-19.68V870.43z M938.62,921.96
				v-0.52c0-23.05-14.64-38.33-31.97-38.33c-17.33,0-31.72,15.28-31.72,38.33v0.52c0,23.05,14.4,38.33,31.72,38.33
				C923.98,960.28,938.62,945.26,938.62,921.96z"/>
			<path class="st28" d="M1003.03,870.43c0-10.88,8.3-19.68,18.55-19.68s18.55,8.8,18.55,19.68v6.21
				c5.37-13.47,14.15-25.89,25.13-25.89c11.47,0,18.06,8.03,18.06,19.16c0,10.36-6.35,16.57-13.91,18.39
				c-18.79,4.66-29.28,19.94-29.28,47.91v36.77c0,10.87-8.3,19.68-18.55,19.68s-18.55-8.8-18.55-19.68V870.43z"/>
			<path class="st28" d="M1095.03,922.48v-0.52c0-39.88,30.26-72.25,71.01-72.25c40.51,0,70.52,31.85,70.52,71.73v0.52
				c0,39.88-30.26,72.25-71.01,72.25C1125.04,994.21,1095.03,962.35,1095.03,922.48z M1199.96,922.48v-0.52
				c0-20.46-13.91-38.32-34.41-38.32c-21.23,0-33.92,17.35-33.92,37.81v0.52c0,20.46,13.91,38.33,34.41,38.33
				C1187.27,960.28,1199.96,942.93,1199.96,922.48z"/>
		</g>
		<g>
			<path class="st21" d="M822.07,870.43c0-10.88,8.3-19.68,18.55-19.68c10.25,0,18.55,8.8,18.55,19.68v1.81
				c9.03-12.95,21.47-22.53,40.75-22.53c30.5,0,59.54,25.38,59.54,71.73v0.52c0,46.35-28.55,71.73-59.54,71.73
				c-19.76,0-31.97-9.58-40.75-20.71v41.43c0,10.88-8.3,19.68-18.55,19.68c-10.25,0-18.55-8.8-18.55-19.68V870.43z M922.37,921.96
				v-0.52c0-23.05-14.64-38.33-31.97-38.33c-17.33,0-31.72,15.28-31.72,38.33v0.52c0,23.05,14.4,38.33,31.72,38.33
				C907.72,960.28,922.37,945.26,922.37,921.96z"/>
			<path class="st21" d="M986.78,870.43c0-10.88,8.3-19.68,18.55-19.68s18.55,8.8,18.55,19.68v6.21
				c5.37-13.47,14.15-25.89,25.13-25.89c11.47,0,18.06,8.03,18.06,19.16c0,10.36-6.35,16.57-13.91,18.39
				c-18.79,4.66-29.28,19.94-29.28,47.91v36.77c0,10.87-8.3,19.68-18.55,19.68s-18.55-8.8-18.55-19.68V870.43z"/>
			<path class="st21" d="M1078.78,922.48v-0.52c0-39.88,30.26-72.25,71.01-72.25c40.51,0,70.52,31.85,70.52,71.73v0.52
				c0,39.88-30.26,72.25-71.01,72.25C1108.79,994.21,1078.78,962.35,1078.78,922.48z M1183.7,922.48v-0.52
				c0-20.46-13.91-38.32-34.41-38.32c-21.23,0-33.92,17.35-33.92,37.81v0.52c0,20.46,13.91,38.33,34.41,38.33
				C1171.02,960.28,1183.7,942.93,1183.7,922.48z"/>
		</g>
	</g>
	<g>
		<path class="st32" d="M866.97,569.13c0,0,10.34-73.37,72.23-97.57c15.02-5.87,31.76-5.4,47.26,1.3
			c9.41,4.07,19.51,10.92,26.17,22.45c0,0-24.92-4.87-33.57,1.51c0,0,27.06,5.68,31.35,43.23c0,0-39.65-43.04-90.22-25.87
			C902.53,520.17,881.46,545.38,866.97,569.13z"/>
		<path class="st33" d="M866.97,569.13c0,0,10.34-73.37,72.23-97.57c15.02-5.87,31.76-5.4,47.26,1.3
			c9.41,4.07,19.51,10.92,26.17,22.45c0,0-24.92-4.87-33.57,1.51c0,0-29.19-15.76-55.92,0.2
			C900.65,510.45,878.5,543.31,866.97,569.13z"/>
	</g>
	<g>
		<path class="st32" d="M800.19,569.13c0,0-10.34-73.37-72.23-97.57c-15.02-5.87-31.77-5.4-47.26,1.3
			c-9.41,4.07-19.51,10.92-26.17,22.45c0,0,24.92-4.87,33.57,1.51c0,0-27.06,5.68-31.35,43.23c0,0,39.65-43.04,90.22-25.87
			C764.63,520.17,785.7,545.38,800.19,569.13z"/>
		<path class="st33" d="M800.19,569.13c0,0-10.34-73.37-72.23-97.57c-15.02-5.87-31.77-5.4-47.26,1.3
			c-9.41,4.07-19.51,10.92-26.17,22.45c0,0,24.92-4.87,33.57,1.51c0,0,29.19-15.76,55.92,0.2
			C766.51,510.45,788.66,543.31,800.19,569.13z"/>
	</g>
</g>
</svg>
